<?xml version="1.0" encoding="utf-8"?>
<!-- Generator: Adobe Illustrator 16.0.0, SVG Export Plug-In . SVG Version: 6.00 Build 0)  -->
<!DOCTYPE svg PUBLIC "-//W3C//DTD SVG 1.1//EN" "http://www.w3.org/Graphics/SVG/1.1/DTD/svg11.dtd">
<svg version="1.1" xmlns="http://www.w3.org/2000/svg" xmlns:xlink="http://www.w3.org/1999/xlink" x="0px" y="0px"
	 width="210.333px" height="40px" viewBox="42.5 130.833 210.333 40" enable-background="new 42.5 130.833 210.333 40"
	 xml:space="preserve">
<g id="Ebene_1">
	<g id="Ebene_1_1_">
	</g>
	<g id="Layer_1">
	</g>
	<g id="BOTTOM">
	</g>
	<g id="new">
	</g>
	<g id="Ebene_2">
	</g>
	<g id="Layer_6">
	</g>
</g>
<g id="BOTTOM_1_">
	<g>
		<g>
			<g>
				<path fill="#FFFFFF" d="M45.062,146.845h6.317c0.028,2.191,0.911,2.361,2.732,2.361h7.741c1.337,0,2.703-0.142,2.703-1.735
					c0-1.793-0.74-1.907-8.879-1.907c-9.505,0-10.586-1.138-10.586-6.203c0-3.729,0.341-6.603,8.31-6.603h8.822
					c7.285,0,7.968,2.476,7.968,6.09v0.655h-6.317c0-1.508-0.171-2.134-3.074-2.134h-7c-1.423,0-2.391,0.483-2.391,1.594
					c0,1.792,0.769,1.85,7.542,1.821c9.818-0.029,12.094,0.569,12.094,6.573c0,5.55-1.878,6.46-10.273,6.46h-7.655
					c-5.749,0-8.053-1.081-8.053-5.549V146.845z"/>
				<path fill="#FFFFFF" d="M72.096,132.985h22.538v4.781H78.414v3.301h15.367v4.269H78.414v3.301h16.591v4.952H72.096V132.985z"/>
				<path fill="#FFFFFF" d="M95.517,140.214c0-6.033,3.387-7.456,9.078-7.456h7.427c8.993,0,10.16,1.935,10.103,7.769h-6.317v-0.569
					c0-1.48-1.082-1.907-2.959-1.907h-6.887c-3.33,0-3.956,1.565-3.956,4.126v2.22c0,2.988,0.626,4.126,3.614,4.126h6.745
					c2.846,0,3.699-0.285,3.699-2.846h6.318v1.935c0,3.471-1.252,6.204-7.598,6.204h-10.188c-5.691,0-9.078-1.423-9.078-7.456
					V140.214z"/>
				<path fill="#FFFFFF" d="M122.893,140.214c0-6.033,3.387-7.456,9.078-7.456h10.131c5.691,0,9.078,1.423,9.078,7.456v6.146
					c0,6.033-3.386,7.456-9.078,7.456h-10.131c-5.691,0-9.078-1.423-9.078-7.456V140.214z M129.381,144.397
					c0,2.988,0.626,4.126,3.614,4.126h8.082c2.988,0,3.614-1.139,3.614-4.126v-2.22c0-2.561-0.626-4.126-3.956-4.126h-7.399
					c-3.329,0-3.956,1.565-3.956,4.126V144.397z"/>
				<path fill="#FFFFFF" d="M152.147,132.985h19.067c4.866,0,6.175,2.419,6.175,6.119v1.309c0,2.76-0.626,4.382-3.528,5.065v0.057
					c1.878,0.342,3.443,1.167,3.443,4.554v3.5h-6.318v-2.476c0-2.163-0.626-2.875-2.589-2.875h-9.932v5.35h-6.318V132.985z
					 M158.466,143.116h10.443c1.708,0,2.334-0.683,2.334-2.163v-0.683c0-1.821-0.911-2.163-2.903-2.163h-9.874V143.116z"/>
				<path fill="#FFFFFF" d="M179.04,132.985h19.066c6.318,0,8.538,2.078,8.538,7.171v6.261c0,5.094-2.22,7.171-8.538,7.171H179.04
					V132.985z M185.357,148.296h11.213c2.703,0,3.756-0.769,3.756-3.7v-2.789c0-2.932-1.053-3.7-3.756-3.7h-11.213V148.296z"/>
				<path fill="#FFFFFF" d="M207.953,132.985h6.318v20.604h-6.318V132.985z"/>
				<path fill="#FFFFFF" d="M215.666,146.845h6.317c0.028,2.191,0.91,2.361,2.731,2.361h7.74c1.338,0,2.704-0.142,2.704-1.735
					c0-1.793-0.74-1.907-8.879-1.907c-9.505,0-10.586-1.138-10.586-6.203c0-3.729,0.341-6.603,8.31-6.603h8.821
					c7.285,0,7.969,2.476,7.969,6.09v0.655h-6.318c0-1.508-0.17-2.134-3.073-2.134h-7c-1.423,0-2.391,0.483-2.391,1.594
					c0,1.792,0.769,1.85,7.541,1.821c9.818-0.029,12.095,0.569,12.095,6.573c0,5.55-1.878,6.46-10.273,6.46h-7.655
					c-5.748,0-8.053-1.081-8.053-5.549V146.845z"/>
			</g>
		</g>
		<g>
			<g>
				<path fill="#FFFFFF" d="M45.571,162.283h0.845v6.242h-0.845V162.283z"/>
				<path fill="#FFFFFF" d="M47.784,162.283h1.259l5.716,5.483v-5.483h0.845v6.242h-1.259l-5.716-5.483v5.483h-0.845V162.283z"/>
				<path fill="#FFFFFF" d="M56.89,162.283h1.259l5.716,5.483v-5.483h0.845v6.242h-1.258l-5.716-5.483v5.483H56.89V162.283z"/>
				<path fill="#FFFFFF" d="M65.883,164.551c0-1.577,0.534-2.336,2.224-2.336h3.595c1.689,0,2.224,0.759,2.224,2.336v1.707
					c0,1.578-0.535,2.336-2.224,2.336h-3.595c-1.69,0-2.224-0.758-2.224-2.336V164.551z M73.082,164.232
					c0-1.087-0.655-1.328-1.466-1.328h-3.423c-0.81,0-1.465,0.241-1.465,1.328v2.345c0,1.086,0.655,1.327,1.465,1.327h3.423
					c0.811,0,1.466-0.241,1.466-1.327V164.232z"/>
				<path fill="#FFFFFF" d="M74.506,162.283h0.948l3.026,5.483l3.026-5.483h0.948l-3.457,6.242h-1.035L74.506,162.283z"/>
				<path fill="#FFFFFF" d="M85.416,162.283h1.052l3.707,6.242h-0.957l-0.776-1.319h-5l-0.776,1.319h-0.957L85.416,162.283z
					 M85.942,162.974l-2.095,3.543h4.19L85.942,162.974z"/>
				<path fill="#FFFFFF" d="M92.704,162.974h-3.155v-0.69h7.156v0.69h-3.155v5.552h-0.845V162.974z"/>
				<path fill="#FFFFFF" d="M97.44,162.283h0.845v6.242H97.44V162.283z"/>
				<path fill="#FFFFFF" d="M99.542,164.551c0-1.577,0.535-2.336,2.224-2.336h3.595c1.69,0,2.224,0.759,2.224,2.336v1.707
					c0,1.578-0.534,2.336-2.224,2.336h-3.595c-1.689,0-2.224-0.758-2.224-2.336V164.551z M106.74,164.232
					c0-1.087-0.655-1.328-1.466-1.328h-3.422c-0.811,0-1.466,0.241-1.466,1.328v2.345c0,1.086,0.655,1.327,1.466,1.327h3.422
					c0.811,0,1.466-0.241,1.466-1.327V164.232z"/>
				<path fill="#FFFFFF" d="M108.759,162.283h1.259l5.716,5.483v-5.483h0.845v6.242h-1.258l-5.716-5.483v5.483h-0.845V162.283z"/>
				<path fill="#FFFFFF" d="M121.654,166.56h0.793V167c0,0.611,0.328,0.904,1.379,0.904h2.621c1.224,0,1.586-0.258,1.586-1.154
					c0-0.785-0.311-0.983-1.362-0.983h-1.604c-2.578,0-3.422-0.155-3.422-1.811c0-1.423,0.845-1.741,2.586-1.741h1.819
					c2.095,0,2.621,0.534,2.621,1.646v0.216h-0.793c-0.017-0.991-0.121-1.173-2.336-1.173h-0.896c-1.629,0-2.207,0.086-2.207,1.112
					c0,0.741,0.233,0.991,1.552,0.991h2.5c1.646,0,2.336,0.475,2.336,1.535v0.404c0,1.535-1.258,1.646-2.509,1.646h-2.345
					c-1.233,0-2.319-0.215-2.319-1.577V166.56z"/>
				<path fill="#FFFFFF" d="M130.054,162.283h6.13v0.69h-5.285v1.991h5.078v0.689h-5.078v2.182h5.319v0.689h-6.164V162.283z"/>
				<path fill="#FFFFFF" d="M137.074,164.551c0-1.577,0.535-2.336,2.225-2.336h3.233c1.535,0,1.957,0.715,1.957,1.552v0.534h-0.742
					v-0.284c0-1.061-0.655-1.112-1.431-1.112h-2.931c-0.811,0-1.465,0.241-1.465,1.328v2.345c0,1.086,0.655,1.327,1.465,1.327h2.957
					c1.138,0,1.466-0.241,1.466-1.086v-0.388h0.793v0.422c0,1.13-0.362,1.741-2.112,1.741h-3.189c-1.69,0-2.225-0.758-2.225-2.336
					V164.551z"/>
				<path fill="#FFFFFF" d="M145.697,162.283h0.845v4.664c0,0.604,0.207,0.957,1.354,0.957h2.931c1.146,0,1.354-0.354,1.354-0.957
					v-4.664h0.845v4.673c0,1.268-0.638,1.638-2.225,1.638h-2.879c-1.586,0-2.225-0.37-2.225-1.638V162.283z"/>
				<path fill="#FFFFFF" d="M154.363,162.283h4.992c1.802,0,2.086,0.596,2.086,1.768v0.509c0,0.88-0.5,1.121-1.146,1.181v0.018
					c0.862,0.155,1.069,0.604,1.069,1.173v1.595h-0.794v-1.371c0-0.974-0.474-1.095-1.241-1.095h-4.121v2.466h-0.845V162.283z
					 M159.261,165.37c0.939,0,1.336-0.25,1.336-0.905v-0.569c0-0.698-0.302-0.922-1.543-0.922h-3.846v2.396H159.261z"/>
				<path fill="#FFFFFF" d="M162.686,162.283h0.845v6.242h-0.845V162.283z"/>
				<path fill="#FFFFFF" d="M167.425,162.974h-3.155v-0.69h7.155v0.69h-3.155v5.552h-0.845V162.974z"/>
				<path fill="#FFFFFF" d="M175.04,165.887l-3.577-3.604h1.138l2.862,2.897l2.862-2.897h1.138l-3.577,3.604v2.639h-0.846V165.887z"
					/>
				<path fill="#FFFFFF" d="M183.92,166.56h0.793V167c0,0.611,0.327,0.904,1.379,0.904h2.621c1.225,0,1.586-0.258,1.586-1.154
					c0-0.785-0.311-0.983-1.362-0.983h-1.604c-2.577,0-3.422-0.155-3.422-1.811c0-1.423,0.845-1.741,2.586-1.741h1.819
					c2.095,0,2.621,0.534,2.621,1.646v0.216h-0.794c-0.017-0.991-0.12-1.173-2.336-1.173h-0.896c-1.63,0-2.207,0.086-2.207,1.112
					c0,0.741,0.232,0.991,1.552,0.991h2.5c1.646,0,2.336,0.475,2.336,1.535v0.404c0,1.535-1.258,1.646-2.508,1.646h-2.346
					c-1.232,0-2.318-0.215-2.318-1.577V166.56z"/>
				<path fill="#FFFFFF" d="M195.224,165.887l-3.577-3.604h1.138l2.862,2.897l2.862-2.897h1.138l-3.578,3.604v2.639h-0.845V165.887z
					"/>
				<path fill="#FFFFFF" d="M200.209,166.56h0.793V167c0,0.611,0.328,0.904,1.38,0.904h2.621c1.224,0,1.586-0.258,1.586-1.154
					c0-0.785-0.311-0.983-1.362-0.983h-1.604c-2.577,0-3.423-0.155-3.423-1.811c0-1.423,0.846-1.741,2.587-1.741h1.819
					c2.095,0,2.62,0.534,2.62,1.646v0.216h-0.793c-0.018-0.991-0.121-1.173-2.336-1.173h-0.896c-1.63,0-2.207,0.086-2.207,1.112
					c0,0.741,0.232,0.991,1.552,0.991h2.5c1.646,0,2.336,0.475,2.336,1.535v0.404c0,1.535-1.259,1.646-2.509,1.646h-2.345
					c-1.232,0-2.319-0.215-2.319-1.577V166.56z"/>
				<path fill="#FFFFFF" d="M211.083,162.974h-3.155v-0.69h7.155v0.69h-3.155v5.552h-0.845V162.974z"/>
				<path fill="#FFFFFF" d="M215.793,162.283h6.13v0.69h-5.285v1.991h5.078v0.689h-5.078v2.182h5.319v0.689h-6.164V162.283z"/>
				<path fill="#FFFFFF" d="M222.926,162.283h1.318l3.647,5.233l3.646-5.233h1.319v6.242h-0.845v-5.483h-0.018l-3.802,5.483h-0.604
					l-3.802-5.483h-0.018v5.483h-0.845V162.283z"/>
				<path fill="#FFFFFF" d="M234.038,166.56h0.793V167c0,0.611,0.328,0.904,1.38,0.904h2.62c1.225,0,1.587-0.258,1.587-1.154
					c0-0.785-0.311-0.983-1.362-0.983h-1.604c-2.578,0-3.423-0.155-3.423-1.811c0-1.423,0.845-1.741,2.586-1.741h1.819
					c2.095,0,2.621,0.534,2.621,1.646v0.216h-0.793c-0.018-0.991-0.121-1.173-2.337-1.173h-0.896c-1.629,0-2.207,0.086-2.207,1.112
					c0,0.741,0.233,0.991,1.552,0.991h2.501c1.646,0,2.336,0.475,2.336,1.535v0.404c0,1.535-1.259,1.646-2.509,1.646h-2.345
					c-1.233,0-2.319-0.215-2.319-1.577V166.56z"/>
			</g>
		</g>
		<g>
			<g>
				<path fill="#FFFFFF" d="M247.917,132.682c2.248,0,4.076,1.829,4.076,4.076c0,2.247-1.828,4.076-4.076,4.076
					c-2.247,0-4.076-1.829-4.076-4.076C243.841,134.51,245.67,132.682,247.917,132.682z M247.917,140.062
					c1.829,0,3.306-1.476,3.306-3.305c0-1.829-1.477-3.305-3.306-3.305c-1.828,0-3.305,1.476-3.305,3.305
					C244.612,138.586,246.089,140.062,247.917,140.062z M246.353,134.444h1.708c1.135,0,1.74,0.386,1.74,1.355
					c0,0.837-0.518,1.167-1.233,1.245l1.267,2.017h-0.881l-1.157-1.983h-0.672v1.983h-0.771V134.444z M248.05,136.438
					c0.54,0,0.98-0.077,0.98-0.705c0-0.551-0.518-0.65-0.97-0.65h-0.937v1.355H248.05z"/>
			</g>
		</g>
	</g>
</g>
</svg>
